{"title":"The League of Extraordinary Gentlemen(2003)MPEG-4[DaScubaDude]","uid":13366538,"size":1102485613,"categoryP":"video","categoryS":"movies","magnet":"?xt=urn:btih:26b37e2dccc5db9e5758d9dcd5c244d72aec90bc&amp;dn=The+League+of+Extraordinary+Gentlemen%282003%29MPEG-4%5BDaScubaDude%5D&amp;tr=udp%3A%2F%2Ftracker.leechers-paradise.org%3A6969&amp;tr=udp%3A%2F%2Fzer0day.ch%3A1337&amp;tr=udp%3A%2F%2Fopen.demonii.com%3A1337&amp;tr=udp%3A%2F%2Ftracker.coppersurfer.tk%3A6969&amp;tr=udp%3A%2F%2Fexodus.desync.com%3A6969","seeders":0,"leechers":1,"uploader":"dascuba","files":1,"time":1454172996,"description":"The League of Extraordinary Gentlemen (2003)\r\nPG-13 | 1h 50min | Action, Adventure, Fantasy | 11 July 2003 (USA)\r\nIn an alternate Victorian Age world, a group of famous contemporary fantasy, SF and adventure characters team up on a secret mission.\r\nDirector: Stephen Norrington\r\nWriters: Alan Moore (comic books), Kevin O'Neill (comic books) | 1 more credit »\r\nStars: Sean Connery, Stuart Townsend, Peta Wilson\r\n\r\nGeneral\r\nComplete name                            :LXGLXG_169_Title1.mp4\r\nFormat                                   : MPEG-4\r\nFormat profile                           : Base Media\r\nCodec ID                                 : isom\r\nFile size                                : 1.03 GiB\r\nDuration                                 : 1h 50mn\r\nOverall bit rate                         : 1 336 Kbps\r\nMovie name                               : LXG_169\r\nGenre                                    : Action\r\nWriting application                      : Lavf54.6.100\r\n\r\nVideo\r\nID                                       : 1\r\nFormat                                   : AVC\r\nFormat/Info                              : Advanced Video Codec\r\nFormat profile                           :   \r\nFormat settings, CABAC                   : No\r\nFormat settings, ReFrames                : 6 frames\r\nCodec ID                                 : avc1\r\nCodec ID/Info                            : Advanced Video Coding\r\nDuration                                 : 1h 50mn\r\nBit rate                                 : 1 201 Kbps\r\nWidth                                    : 720 pixels\r\nHeight                                   : 404 pixels\r\nDisplay aspect ratio                     : 16:9\r\nFrame rate mode                          : Constant\r\nFrame rate                               : 29.970 fps\r\nColor space                              : YUV\r\nChroma subsampling                       : 4:2:0\r\nBit depth                                : 8 bits\r\nScan type                                : Progressive\r\nBits/(Pixel*Frame)                       : 0.138\r\nStream size                              : 945 MiB (90%)\r\n\r\nAudio\r\nID                                       : 2\r\nFormat                                   : AAC\r\nFormat/Info                              : Advanced Audio Codec\r\nFormat profile                           : LC\r\nCodec ID                                 : 40\r\nDuration                                 : 1h 50mn\r\nBit rate mode                            : Constant\r\nBit rate                                 : 128 Kbps\r\nChannel(s)                               : 2 channels\r\nChannel positions                        : Front: L R\r\nSampling rate                            : 44.1 KHz\r\nCompression mode                         : Lossy\r\nStream size                              : 101 MiB (10%)","torrent":{"xt":"urn:btih:26b37e2dccc5db9e5758d9dcd5c244d72aec90bc","amp;dn":"The+League+of+Extraordinary+Gentlemen%282003%29MPEG-4%5BDaScubaDude%5D","amp;tr":["udp%3A%2F%2Ftracker.leechers-paradise.org%3A6969","udp%3A%2F%2Fzer0day.ch%3A1337","udp%3A%2F%2Fopen.demonii.com%3A1337","udp%3A%2F%2Ftracker.coppersurfer.tk%3A6969","udp%3A%2F%2Fexodus.desync.com%3A6969"],"infoHash":"26b37e2dccc5db9e5758d9dcd5c244d72aec90bc","infoHashBuffer":{"type":"Buffer","data":[38,179,126,45,204,197,219,158,87,88,217,220,213,194,68,215,42,236,144,188]},"announce":[],"urlList":[]}}